<svg xmlns="http://www.w3.org/2000/svg"  viewBox="0 0 64 64" width="64px" height="64px"><linearGradient id="bsRLN9WNwqaeq6EciU7X7a" x1="31.5" x2="31.5" y1="54.945" y2="9.611" gradientTransform="matrix(1 0 0 -1 0 65.276)" gradientUnits="userSpaceOnUse"><stop offset="0" stop-color="#8ab4ff"/><stop offset="1" stop-color="#e492ff"/></linearGradient><path fill="url(#bsRLN9WNwqaeq6EciU7X7a)" d="M11,12h41c0.552,0,1,0.448,1,1v27H42V19c0-1.657-1.343-3-3-3H18c-1.657,0-3,1.343-3,3v21h-5	V13C10,12.448,10.448,12,11,12z M39,35H18v9h21V35z M39,33H18v-9h21V33z M39,50H18v-4h21V50z M38,56H19c-0.552,0-1-0.448-1-1v-3h21	v3C39,55.552,38.552,56,38,56z"/><linearGradient id="bsRLN9WNwqaeq6EciU7X7b" x1="31.5" x2="31.5" y1="57.276" y2="5.276" gradientTransform="matrix(1 0 0 -1 0 65.276)" gradientUnits="userSpaceOnUse"><stop offset="0" stop-color="#1a6dff"/><stop offset="1" stop-color="#c822ff"/></linearGradient><path fill="url(#bsRLN9WNwqaeq6EciU7X7b)" d="M35,20c0,0.552-0.448,1-1,1h-6	c-0.552,0-1-0.448-1-1s0.448-1,1-1h6C34.552,19,35,19.448,35,20z M24,19c-0.552,0-1,0.448-1,1s0.448,1,1,1s1-0.448,1-1	S24.552,19,24,19z M60,43c0,2.757-2.243,5-5,5H43v8c0,2.206-1.794,4-4,4H18c-2.206,0-4-1.794-4-4v-8H8c-2.757,0-5-2.243-5-5	c0-0.553,0.447-1,1-1h2V12c0-2.206,1.794-4,4-4h43c2.206,0,4,1.794,4,4v30h2C59.553,42,60,42.447,60,43z M8,42h6V19	c0-2.206,1.794-4,4-4h21c2.206,0,4,1.794,4,4v23h12V12c0-1.103-0.897-2-2-2H10c-1.103,0-2,0.897-2,2V42z M14,46v-2H5.171	C5.584,45.164,6.696,46,8,46H14z M41,47v-4V19c0-1.103-0.897-2-2-2H18c-1.103,0-2,0.897-2,2v24v4v9c0,1.103,0.897,2,2,2h21	c1.103,0,2-0.897,2-2V47z M57.829,44H43v2h12C56.304,46,57.416,45.164,57.829,44z"/></svg>